<?xml version="1.0" encoding="UTF-8" standalone="no"?>
<!DOCTYPE svg PUBLIC "-//W3C//DTD SVG 1.1//EN"
 "http://www.w3.org/Graphics/SVG/1.1/DTD/svg11.dtd">
<!-- Generated by graphviz version 2.47.0 (20210316.0004)
 -->
<!-- Title: dependencies Pages: 1 -->
<svg width="988pt" height="211pt"
 viewBox="0.00 0.00 988.00 211.00" xmlns="http://www.w3.org/2000/svg" xmlns:xlink="http://www.w3.org/1999/xlink">
<g id="graph0" class="graph" transform="scale(1 1) rotate(0) translate(4 207)">
<title>dependencies</title>
<polygon fill="white" stroke="transparent" points="-4,4 -4,-207 984,-207 984,4 -4,4"/>
<text text-anchor="start" x="469.01" y="-42.4" font-family="Times-12" font-weight="bold" font-size="14.00">Legend</text>
<polygon fill="#ffffb3" stroke="transparent" points="256,-10 256,-30 276,-30 276,-10 256,-10"/>
<text text-anchor="start" x="279.63" y="-15.4" font-family="Times-12" font-size="14.00"> &#160;Declarations</text>
<polygon fill="#8dd3c7" stroke="transparent" points="369,-10 369,-30 389,-30 389,-10 369,-10"/>
<text text-anchor="start" x="392.73" y="-15.4" font-family="Times-12" font-size="14.00"> &#160;Module</text>
<polygon fill="#80b1d3" stroke="transparent" points="455,-10 455,-30 475,-30 475,-10 455,-10"/>
<text text-anchor="start" x="478.78" y="-15.4" font-family="Times-12" font-size="14.00"> &#160;Bootstrap</text>
<polygon fill="#fdb462" stroke="transparent" points="552,-10 552,-30 572,-30 572,-10 552,-10"/>
<text text-anchor="start" x="575.67" y="-15.4" font-family="Times-12" font-size="14.00"> &#160;Providers</text>
<polygon fill="#fb8072" stroke="transparent" points="648,-10 648,-30 668,-30 668,-10 648,-10"/>
<text text-anchor="start" x="671.73" y="-15.4" font-family="Times-12" font-size="14.00"> &#160;Exports</text>
<g id="clust1" class="cluster">
<title>cluster_ApiModule</title>
<polygon fill="none" stroke="black" stroke-dasharray="1,5" points="8,-70 8,-195 972,-195 972,-70 8,-70"/>
</g>
<g id="clust6" class="cluster">
<title>cluster_ApiModule_providers</title>
<polygon fill="none" stroke="black" points="840,-78 840,-130 964,-130 964,-78 840,-78"/>
</g>
<g id="clust3" class="cluster">
<title>cluster_ApiModule_imports</title>
<polygon fill="none" stroke="black" points="16,-78 16,-130 832,-130 832,-78 16,-78"/>
</g>
<!-- AuthModule -->
<g id="node1" class="node">
<title>AuthModule</title>
<polygon fill="#8dd3c7" stroke="black" points="823.55,-122 820.55,-126 799.55,-126 796.55,-122 736.45,-122 736.45,-86 823.55,-86 823.55,-122"/>
<text text-anchor="middle" x="780" y="-99.8" font-family="Times,serif" font-size="14.00">AuthModule</text>
</g>
<!-- ApiModule -->
<g id="node7" class="node">
<title>ApiModule</title>
<polygon fill="#8dd3c7" stroke="black" points="558.05,-187 555.05,-191 534.05,-191 531.05,-187 477.95,-187 477.95,-151 558.05,-151 558.05,-187"/>
<text text-anchor="middle" x="518" y="-164.8" font-family="Times,serif" font-size="14.00">ApiModule</text>
</g>
<!-- AuthModule&#45;&gt;ApiModule -->
<g id="edge1" class="edge">
<title>AuthModule&#45;&gt;ApiModule</title>
<path fill="none" stroke="black" d="M780,-122.11C780,-141.34 780,-169 780,-169 780,-169 568.08,-169 568.08,-169"/>
<polygon fill="black" stroke="black" points="568.08,-165.5 558.08,-169 568.08,-172.5 568.08,-165.5"/>
</g>
<!-- CategoriesModule -->
<g id="node2" class="node">
<title>CategoriesModule</title>
<polygon fill="#8dd3c7" stroke="black" points="718.92,-122 715.92,-126 694.92,-126 691.92,-122 599.08,-122 599.08,-86 718.92,-86 718.92,-122"/>
<text text-anchor="middle" x="659" y="-99.8" font-family="Times,serif" font-size="14.00">CategoriesModule</text>
</g>
<!-- CategoriesModule&#45;&gt;ApiModule -->
<g id="edge2" class="edge">
<title>CategoriesModule&#45;&gt;ApiModule</title>
<path fill="none" stroke="black" d="M659,-122.03C659,-138.4 659,-160 659,-160 659,-160 568.4,-160 568.4,-160"/>
<polygon fill="black" stroke="black" points="568.4,-156.5 558.4,-160 568.4,-163.5 568.4,-156.5"/>
</g>
<!-- NotificationModule -->
<g id="node3" class="node">
<title>NotificationModule</title>
<polygon fill="#8dd3c7" stroke="black" points="581.7,-122 578.7,-126 557.7,-126 554.7,-122 454.3,-122 454.3,-86 581.7,-86 581.7,-122"/>
<text text-anchor="middle" x="518" y="-99.8" font-family="Times,serif" font-size="14.00">NotificationModule</text>
</g>
<!-- NotificationModule&#45;&gt;ApiModule -->
<g id="edge3" class="edge">
<title>NotificationModule&#45;&gt;ApiModule</title>
<path fill="none" stroke="black" d="M518,-122.11C518,-122.11 518,-140.99 518,-140.99"/>
<polygon fill="black" stroke="black" points="514.5,-140.99 518,-150.99 521.5,-140.99 514.5,-140.99"/>
</g>
<!-- OrganizationModule -->
<g id="node4" class="node">
<title>OrganizationModule</title>
<polygon fill="#8dd3c7" stroke="black" points="436.13,-122 433.13,-126 412.13,-126 409.13,-122 303.87,-122 303.87,-86 436.13,-86 436.13,-122"/>
<text text-anchor="middle" x="370" y="-99.8" font-family="Times,serif" font-size="14.00">OrganizationModule</text>
</g>
<!-- OrganizationModule&#45;&gt;ApiModule -->
<g id="edge4" class="edge">
<title>OrganizationModule&#45;&gt;ApiModule</title>
<path fill="none" stroke="black" d="M370,-122.03C370,-138.4 370,-160 370,-160 370,-160 467.95,-160 467.95,-160"/>
<polygon fill="black" stroke="black" points="467.95,-163.5 477.95,-160 467.95,-156.5 467.95,-163.5"/>
</g>
<!-- PaymentMethodModule -->
<g id="node5" class="node">
<title>PaymentMethodModule</title>
<polygon fill="#8dd3c7" stroke="black" points="286.09,-122 283.09,-126 262.09,-126 259.09,-122 133.91,-122 133.91,-86 286.09,-86 286.09,-122"/>
<text text-anchor="middle" x="210" y="-99.8" font-family="Times,serif" font-size="14.00">PaymentMethodModule</text>
</g>
<!-- PaymentMethodModule&#45;&gt;ApiModule -->
<g id="edge5" class="edge">
<title>PaymentMethodModule&#45;&gt;ApiModule</title>
<path fill="none" stroke="black" d="M210,-122.11C210,-141.34 210,-169 210,-169 210,-169 467.73,-169 467.73,-169"/>
<polygon fill="black" stroke="black" points="467.73,-172.5 477.73,-169 467.73,-165.5 467.73,-172.5"/>
</g>
<!-- UsersModule -->
<g id="node6" class="node">
<title>UsersModule</title>
<polygon fill="#8dd3c7" stroke="black" points="115.92,-122 112.92,-126 91.92,-126 88.92,-122 24.08,-122 24.08,-86 115.92,-86 115.92,-122"/>
<text text-anchor="middle" x="70" y="-99.8" font-family="Times,serif" font-size="14.00">UsersModule</text>
</g>
<!-- UsersModule&#45;&gt;ApiModule -->
<g id="edge6" class="edge">
<title>UsersModule&#45;&gt;ApiModule</title>
<path fill="none" stroke="black" d="M70,-122.29C70,-144.21 70,-178 70,-178 70,-178 467.85,-178 467.85,-178"/>
<polygon fill="black" stroke="black" points="467.85,-181.5 477.85,-178 467.85,-174.5 467.85,-181.5"/>
</g>
<!-- ApiService -->
<g id="node8" class="node">
<title>ApiService</title>
<ellipse fill="#fdb462" stroke="black" cx="902" cy="-104" rx="54.45" ry="18"/>
<text text-anchor="middle" x="902" y="-99.8" font-family="Times,serif" font-size="14.00">ApiService</text>
</g>
<!-- ApiService&#45;&gt;ApiModule -->
<g id="edge7" class="edge">
<title>ApiService&#45;&gt;ApiModule</title>
<path fill="none" stroke="black" d="M902,-122.29C902,-144.21 902,-178 902,-178 902,-178 568.37,-178 568.37,-178"/>
<polygon fill="black" stroke="black" points="568.37,-174.5 558.37,-178 568.37,-181.5 568.37,-174.5"/>
</g>
</g>
</svg>
