<?xml version="1.0" encoding="UTF-8" standalone="no"?>
<!DOCTYPE svg PUBLIC "-//W3C//DTD SVG 1.1//EN"
 "http://www.w3.org/Graphics/SVG/1.1/DTD/svg11.dtd">
<!-- Generated by graphviz version 2.47.0 (20210316.0004)
 -->
<!-- Title: dependencies Pages: 1 -->
<svg width="504pt" height="284pt"
 viewBox="0.00 0.00 504.00 284.00" xmlns="http://www.w3.org/2000/svg" xmlns:xlink="http://www.w3.org/1999/xlink">
<g id="graph0" class="graph" transform="scale(1 1) rotate(0) translate(4 280)">
<title>dependencies</title>
<polygon fill="white" stroke="transparent" points="-4,4 -4,-280 500,-280 500,4 -4,4"/>
<text text-anchor="start" x="227.01" y="-42.4" font-family="Times-12" font-weight="bold" font-size="14.00">Legend</text>
<polygon fill="#ffffb3" stroke="transparent" points="14,-10 14,-30 34,-30 34,-10 14,-10"/>
<text text-anchor="start" x="37.63" y="-15.4" font-family="Times-12" font-size="14.00"> &#160;Declarations</text>
<polygon fill="#8dd3c7" stroke="transparent" points="127,-10 127,-30 147,-30 147,-10 127,-10"/>
<text text-anchor="start" x="150.73" y="-15.4" font-family="Times-12" font-size="14.00"> &#160;Module</text>
<polygon fill="#80b1d3" stroke="transparent" points="213,-10 213,-30 233,-30 233,-10 213,-10"/>
<text text-anchor="start" x="236.78" y="-15.4" font-family="Times-12" font-size="14.00"> &#160;Bootstrap</text>
<polygon fill="#fdb462" stroke="transparent" points="310,-10 310,-30 330,-30 330,-10 310,-10"/>
<text text-anchor="start" x="333.67" y="-15.4" font-family="Times-12" font-size="14.00"> &#160;Providers</text>
<polygon fill="#fb8072" stroke="transparent" points="406,-10 406,-30 426,-30 426,-10 406,-10"/>
<text text-anchor="start" x="429.73" y="-15.4" font-family="Times-12" font-size="14.00"> &#160;Exports</text>
<g id="clust1" class="cluster">
<title>cluster_NotificationModule</title>
<polygon fill="none" stroke="black" stroke-dasharray="1,5" points="89,-70 89,-268 407,-268 407,-70 89,-70"/>
</g>
<g id="clust4" class="cluster">
<title>cluster_NotificationModule_exports</title>
<polygon fill="none" stroke="black" points="98,-208 98,-260 398,-260 398,-208 98,-208"/>
</g>
<g id="clust3" class="cluster">
<title>cluster_NotificationModule_imports</title>
<polygon fill="none" stroke="black" points="295,-78 295,-130 399,-130 399,-78 295,-78"/>
</g>
<g id="clust6" class="cluster">
<title>cluster_NotificationModule_providers</title>
<polygon fill="none" stroke="black" points="97,-78 97,-130 287,-130 287,-78 97,-78"/>
</g>
<!-- AuthModule -->
<g id="node1" class="node">
<title>AuthModule</title>
<polygon fill="#8dd3c7" stroke="black" points="390.55,-122 387.55,-126 366.55,-126 363.55,-122 303.45,-122 303.45,-86 390.55,-86 390.55,-122"/>
<text text-anchor="middle" x="347" y="-99.8" font-family="Times,serif" font-size="14.00">AuthModule</text>
</g>
<!-- NotificationModule -->
<g id="node2" class="node">
<title>NotificationModule</title>
<polygon fill="#8dd3c7" stroke="black" points="320.7,-187 317.7,-191 296.7,-191 293.7,-187 193.3,-187 193.3,-151 320.7,-151 320.7,-187"/>
<text text-anchor="middle" x="257" y="-164.8" font-family="Times,serif" font-size="14.00">NotificationModule</text>
</g>
<!-- AuthModule&#45;&gt;NotificationModule -->
<g id="edge1" class="edge">
<title>AuthModule&#45;&gt;NotificationModule</title>
<path fill="none" stroke="black" d="M311.91,-122.11C311.91,-122.11 311.91,-140.99 311.91,-140.99"/>
<polygon fill="black" stroke="black" points="308.41,-140.99 311.91,-150.99 315.41,-140.99 308.41,-140.99"/>
</g>
<!-- NotificationGateway  -->
<g id="node3" class="node">
<title>NotificationGateway </title>
<polygon fill="#fb8072" stroke="black" points="390.4,-252 253.6,-252 253.6,-216 390.4,-216 390.4,-252"/>
<text text-anchor="middle" x="322" y="-229.8" font-family="Times,serif" font-size="14.00">NotificationGateway </text>
</g>
<!-- NotificationModule&#45;&gt;NotificationGateway  -->
<g id="edge2" class="edge">
<title>NotificationModule&#45;&gt;NotificationGateway </title>
<path fill="none" stroke="black" stroke-dasharray="5,2" d="M287.08,-187.11C287.08,-187.11 287.08,-205.99 287.08,-205.99"/>
<polygon fill="black" stroke="black" points="283.58,-205.99 287.08,-215.99 290.58,-205.99 283.58,-205.99"/>
</g>
<!-- NotificationService  -->
<g id="node4" class="node">
<title>NotificationService </title>
<polygon fill="#fb8072" stroke="black" points="235.63,-252 106.37,-252 106.37,-216 235.63,-216 235.63,-252"/>
<text text-anchor="middle" x="171" y="-229.8" font-family="Times,serif" font-size="14.00">NotificationService </text>
</g>
<!-- NotificationModule&#45;&gt;NotificationService  -->
<g id="edge3" class="edge">
<title>NotificationModule&#45;&gt;NotificationService </title>
<path fill="none" stroke="black" stroke-dasharray="5,2" d="M214.48,-187.11C214.48,-187.11 214.48,-205.99 214.48,-205.99"/>
<polygon fill="black" stroke="black" points="210.98,-205.99 214.48,-215.99 217.98,-205.99 210.98,-205.99"/>
</g>
<!-- NotificationService -->
<g id="node5" class="node">
<title>NotificationService</title>
<ellipse fill="#fdb462" stroke="black" cx="192" cy="-104" rx="86.81" ry="18"/>
<text text-anchor="middle" x="192" y="-99.8" font-family="Times,serif" font-size="14.00">NotificationService</text>
</g>
<!-- NotificationService&#45;&gt;NotificationModule -->
<g id="edge4" class="edge">
<title>NotificationService&#45;&gt;NotificationModule</title>
<path fill="none" stroke="black" d="M236.03,-119.73C236.03,-119.73 236.03,-140.65 236.03,-140.65"/>
<polygon fill="black" stroke="black" points="232.53,-140.65 236.03,-150.65 239.53,-140.65 232.53,-140.65"/>
</g>
</g>
</svg>
